<svg xmlns="http://www.w3.org/2000/svg" xmlns:xlink="http://www.w3.org/1999/xlink" width="40" zoomAndPan="magnify" viewBox="0 0 30 30.000001" height="40" preserveAspectRatio="xMidYMid meet" version="1.2"><defs><clipPath id="53b5579958"><path d="M 29 28.453125 L 29.515625 28.453125 L 29.515625 29.03125 L 29 29.03125 Z M 29 28.453125 "/></clipPath><clipPath id="4b8225767c"><path d="M 28.933594 28.453125 L 29.515625 28.453125 L 29.515625 29.03125 L 28.933594 29.03125 Z M 28.933594 28.453125 "/></clipPath><clipPath id="53958fd62c"><path d="M 1.679688 1.234375 L 28.535156 1.234375 L 28.535156 28 L 1.679688 28 Z M 1.679688 1.234375 "/></clipPath><clipPath id="0f1fc835e6"><path d="M 15 1.234375 L 28 1.234375 L 28 15 L 15 15 Z M 15 1.234375 "/></clipPath></defs><g id="8bbf735d5f"><g clip-rule="nonzero" clip-path="url(#53b5579958)"><path style=" stroke:none;fill-rule:nonzero;fill:#000000;fill-opacity:1;" d="M 30.074219 29.132812 C 30.050781 28.941406 29.898438 28.785156 29.707031 28.765625 C 29.679688 28.761719 29.660156 28.738281 29.660156 28.707031 C 29.664062 28.679688 29.691406 28.660156 29.71875 28.664062 C 29.957031 28.6875 30.148438 28.882812 30.175781 29.121094 C 30.179688 29.148438 30.160156 29.175781 30.128906 29.175781 C 30.101562 29.179688 30.078125 29.160156 30.074219 29.132812 Z M 30.074219 29.132812 "/><path style=" stroke:none;fill-rule:nonzero;fill:#000000;fill-opacity:1;" d="M 29.964844 29.117188 C 29.972656 29.144531 29.953125 29.171875 29.925781 29.175781 C 29.898438 29.183594 29.871094 29.164062 29.863281 29.136719 C 29.847656 29.054688 29.785156 28.992188 29.703125 28.972656 C 29.675781 28.96875 29.65625 28.941406 29.664062 28.914062 C 29.667969 28.886719 29.695312 28.867188 29.722656 28.871094 C 29.847656 28.898438 29.941406 28.992188 29.964844 29.117188 Z M 29.964844 29.117188 "/></g><g clip-rule="nonzero" clip-path="url(#4b8225767c)"><path style=" stroke:none;fill-rule:nonzero;fill:#000000;fill-opacity:1;" d="M 29.964844 29.460938 L 30.265625 29.558594 C 30.277344 29.5625 30.285156 29.574219 30.285156 29.585938 L 30.285156 29.695312 C 30.285156 29.808594 30.191406 29.902344 30.074219 29.902344 C 29.445312 29.902344 28.933594 29.390625 28.933594 28.761719 C 28.933594 28.648438 29.027344 28.554688 29.140625 28.554688 L 29.253906 28.554688 C 29.265625 28.554688 29.273438 28.5625 29.277344 28.574219 L 29.378906 28.875 C 29.382812 28.882812 29.378906 28.898438 29.367188 28.902344 L 29.234375 28.992188 C 29.222656 29 29.21875 29.011719 29.222656 29.023438 C 29.324219 29.28125 29.554688 29.515625 29.816406 29.613281 C 29.824219 29.621094 29.839844 29.613281 29.84375 29.605469 L 29.933594 29.46875 C 29.941406 29.460938 29.953125 29.457031 29.964844 29.460938 Z M 29.964844 29.460938 "/></g><g clip-rule="nonzero" clip-path="url(#53958fd62c)"><path style=" stroke:none;fill-rule:nonzero;fill:#ffffff;fill-opacity:1;" d="M 21.679688 27.84375 C 21.644531 27.84375 21.570312 27.84375 21.535156 27.84375 C 13.375 27.703125 1.929688 16.257812 1.789062 8.097656 C 1.679688 3.78125 4.960938 2.179688 6.921875 1.574219 C 8.0625 1.25 9.273438 1.714844 9.84375 2.75 L 12.160156 6.8125 C 12.765625 7.882812 12.519531 9.238281 11.589844 10.019531 C 10.09375 11.269531 9.773438 11.945312 9.773438 12.089844 C 10.308594 14.191406 15.40625 19.289062 17.472656 19.789062 C 17.617188 19.789062 18.292969 19.46875 19.539062 17.96875 C 20.324219 17.007812 21.679688 16.757812 22.75 17.398438 L 26.8125 19.714844 C 27.847656 20.285156 28.308594 21.5 27.988281 22.640625 C 27.453125 24.601562 25.851562 27.84375 21.679688 27.84375 Z M 7.671875 2.890625 C 7.5625 2.890625 7.457031 2.890625 7.347656 2.925781 C 5.425781 3.496094 3.144531 4.851562 3.214844 8.023438 C 3.320312 15.476562 14.121094 26.277344 21.535156 26.417969 C 21.570312 26.417969 21.609375 26.417969 21.644531 26.417969 C 24.746094 26.417969 26.0625 24.171875 26.632812 22.285156 C 26.777344 21.785156 26.5625 21.25 26.097656 21 L 22.035156 18.683594 C 21.570312 18.398438 20.964844 18.503906 20.609375 18.933594 C 19.148438 20.714844 18.042969 21.425781 17.117188 21.214844 C 14.480469 20.570312 9.023438 15.117188 8.382812 12.480469 C 8.167969 11.554688 8.882812 10.449219 10.664062 8.988281 C 11.09375 8.628906 11.199219 8.058594 10.914062 7.5625 L 8.597656 3.496094 C 8.417969 3.105469 8.0625 2.890625 7.671875 2.890625 Z M 7.671875 2.890625 "/></g><path style=" stroke:none;fill-rule:nonzero;fill:#ffffff;fill-opacity:1;" d="M 21.429688 14.441406 C 21.074219 14.441406 20.789062 14.191406 20.714844 13.835938 C 20.359375 11.304688 18.328125 9.273438 15.796875 8.914062 C 15.40625 8.84375 15.15625 8.488281 15.191406 8.097656 C 15.261719 7.703125 15.621094 7.453125 16.011719 7.488281 C 19.148438 7.953125 21.679688 10.484375 22.105469 13.621094 C 22.179688 14.011719 21.894531 14.371094 21.5 14.441406 C 21.5 14.441406 21.464844 14.441406 21.429688 14.441406 Z M 21.429688 14.441406 "/><path style=" stroke:none;fill-rule:nonzero;fill:#ffffff;fill-opacity:1;" d="M 24.28125 14.40625 C 23.925781 14.40625 23.605469 14.121094 23.570312 13.761719 C 23.140625 9.699219 19.898438 6.457031 15.832031 6.0625 C 15.441406 6.027344 15.15625 5.671875 15.191406 5.28125 C 15.226562 4.886719 15.582031 4.601562 15.976562 4.636719 C 20.714844 5.101562 24.496094 8.878906 24.957031 13.621094 C 24.996094 14.011719 24.710938 14.371094 24.316406 14.40625 C 24.316406 14.40625 24.28125 14.40625 24.28125 14.40625 Z M 24.28125 14.40625 "/><g clip-rule="nonzero" clip-path="url(#0f1fc835e6)"><path style=" stroke:none;fill-rule:nonzero;fill:#ffffff;fill-opacity:1;" d="M 27.097656 14.441406 C 26.742188 14.441406 26.421875 14.15625 26.382812 13.800781 C 25.957031 8.203125 21.429688 3.675781 15.832031 3.246094 C 15.441406 3.210938 15.15625 2.890625 15.191406 2.5 C 15.226562 2.105469 15.546875 1.820312 15.941406 1.859375 C 22.214844 2.355469 27.3125 7.453125 27.808594 13.726562 C 27.847656 14.121094 27.5625 14.476562 27.167969 14.476562 C 27.132812 14.441406 27.132812 14.441406 27.097656 14.441406 Z M 27.097656 14.441406 "/></g></g></svg>